<svg width="18" height="13" viewBox="0 0 18 13" fill="none" xmlns="http://www.w3.org/2000/svg">
<g clip-path="url(#clip0_764_14539)">
<path fill-rule="evenodd" clip-rule="evenodd" d="M13.8739 5.68192C15.8758 5.68192 17.5 7.32088 17.5 9.34096C17.5 11.361 15.8758 13 13.8739 13C11.8721 13 10.2479 11.361 10.2479 9.34096C10.2479 8.03845 10.923 6.89369 11.9399 6.24592L10.8151 4.49528H6.35482L5.67969 6.03372C6.90405 6.62146 7.75212 7.88069 7.75212 9.34096C7.75212 11.361 6.12793 13 4.12606 13C2.12419 13 0.5 11.361 0.5 9.34096C0.5 7.32088 2.12419 5.68192 4.12606 5.68192C4.29484 5.68192 4.45947 5.69308 4.62272 5.71542L5.49707 3.71907C5.587 3.51246 5.7876 3.3896 5.99788 3.3896H11.1098C11.2094 3.3896 11.3021 3.41613 11.3837 3.4636L12.4794 1.10846H10.6048C10.3018 1.10846 10.057 0.859966 10.057 0.555627C10.057 0.251289 10.3018 0 10.6048 0H13.3385V0.0027921C13.416 0.0027921 13.4949 0.0195447 13.5696 0.0544459C13.8435 0.182882 13.9611 0.510954 13.8324 0.787371L12.1128 4.48829L12.9567 5.80058C13.25 5.7224 13.5571 5.68192 13.8739 5.68192ZM4.21183 0.894867H7.08805C7.26652 0.894867 7.42977 0.968857 7.54875 1.08892C7.66773 1.21037 7.74243 1.3779 7.74243 1.56218V1.8721C7.74243 2.05777 7.66772 2.2253 7.54736 2.34536C7.42977 2.46402 7.26652 2.53941 7.08667 2.53941H4.21183C4.03337 2.53941 3.87012 2.46542 3.75114 2.34536C3.63078 2.2239 3.55607 2.05638 3.55607 1.8721V1.56357C3.55607 1.3779 3.63078 1.21037 3.75114 1.09031C3.86873 0.970253 4.03198 0.896263 4.21183 0.894867ZM5.2356 7.04725L4.32943 9.1134C4.20768 9.39261 3.88395 9.51965 3.60726 9.3968C3.33057 9.27395 3.20467 8.94727 3.32642 8.66806L4.15096 6.78898C4.14266 6.78898 4.13436 6.78898 4.12606 6.78898C2.72876 6.78898 1.59709 7.93235 1.59709 9.34096C1.59709 10.7496 2.73014 11.8929 4.12606 11.8929C5.52336 11.8929 6.65503 10.7496 6.65503 9.34096C6.65503 8.33301 6.07674 7.46188 5.2356 7.04725ZM13.6014 6.80294L14.4813 8.16967C14.6459 8.42515 14.574 8.76718 14.3208 8.93331C14.0676 9.09944 13.7287 9.02685 13.564 8.77137L12.5361 7.17429C11.8209 7.62521 11.3436 8.42655 11.3436 9.34096C11.3436 10.7496 12.4766 11.8929 13.8726 11.8929C15.2699 11.8929 16.4015 10.7496 16.4015 9.34096C16.4015 7.93095 15.2685 6.78898 13.8726 6.78898C13.7826 6.78759 13.6913 6.79317 13.6014 6.80294Z" fill="black"/>
</g>
<defs>
<clipPath id="clip0_764_14539">
<rect width="17" height="13" fill="white" transform="translate(0.5)"/>
</clipPath>
</defs>
</svg>
