<svg width="23" height="23" viewBox="0 0 23 23" fill="none" xmlns="http://www.w3.org/2000/svg">
<g clip-path="url(#clip0_2099_1779)" filter="url(#filter0_i_2099_1779)">
<g filter="url(#filter1_i_2099_1779)">
<path d="M18.7817 22.4102C20.2941 21.8258 21.4897 20.6302 22.074 19.1179C22.3506 18.4015 22.5442 17.5842 22.5967 16.3886C22.6092 16.1085 22.6189 15.8734 22.6279 15.6376V7.64941C22.6216 7.48276 22.6147 7.30919 22.6057 7.11419C22.5532 5.91859 22.3596 5.09709 22.083 4.38484C21.7974 3.62904 21.3576 2.95206 20.7823 2.38987C20.2194 1.818 19.5382 1.37406 18.7907 1.09331C18.0743 0.816708 17.257 0.623088 16.0614 0.570534C14.8568 0.51314 14.4744 0.5 11.42 0.5C8.36569 0.5 7.9826 0.513139 6.78285 0.565693C5.58725 0.618247 4.76575 0.811867 4.0535 1.08847C3.29769 1.37406 2.62072 1.81385 2.05784 2.38987C1.48666 2.95275 1.04271 3.63388 0.761274 4.38069C0.484675 5.09709 0.291055 5.91444 0.238501 7.11004C0.181106 8.31463 0.167969 8.69703 0.167969 11.7521C0.167969 14.8071 0.181106 15.1895 0.23366 16.3893C0.286214 17.5849 0.479834 18.4071 0.757125 19.1186C1.04271 19.8744 1.48666 20.5514 2.05784 21.1143C2.62072 21.6855 3.30184 22.1301 4.04935 22.4108C4.76575 22.6874 5.5831 22.8811 6.7787 22.9336C7.97845 22.9869 8.36085 23 11.4159 23C14.4709 23 14.8526 22.9869 16.0531 22.9336C17.2487 22.8811 18.0702 22.6874 18.7824 22.4108L18.7817 22.4102ZM11.4242 20.9774C8.4217 20.9774 8.06143 20.9642 6.87897 20.9117C5.78018 20.8633 5.18687 20.6786 4.79133 20.5251C4.30383 20.3446 3.85988 20.0591 3.49892 19.6856C3.12551 19.3205 2.83923 18.8814 2.65944 18.3932C2.50593 17.9977 2.3213 17.3995 2.27289 16.3056C2.22034 15.119 2.2072 14.7629 2.2072 11.7604C2.2072 8.75788 2.22034 8.39761 2.27289 7.21584C2.3213 6.11705 2.50593 5.52374 2.65944 5.12821C2.83992 4.64001 3.12551 4.19606 3.50376 3.83579C3.86818 3.46238 4.30797 3.17679 4.79548 2.99631C5.19102 2.8428 5.78917 2.65817 6.88312 2.60976C8.06973 2.55721 8.42585 2.54407 11.4277 2.54407C14.4295 2.54407 14.7904 2.55721 15.9729 2.60976C17.0717 2.65817 17.665 2.8428 18.0605 2.99631C18.548 3.17679 18.992 3.46238 19.3522 3.83579C19.7256 4.2009 20.0119 4.64001 20.1917 5.12821C20.3452 5.52374 20.5299 6.1212 20.5783 7.21584C20.6308 8.40245 20.644 8.75858 20.644 11.7604C20.644 14.7622 20.6308 15.1141 20.5783 16.3008C20.5299 17.3995 20.3452 17.9929 20.1917 18.3884C19.8135 19.3689 19.0355 20.1469 18.0557 20.5244C17.6601 20.6779 17.0627 20.8626 15.968 20.911C14.7814 20.9635 14.4253 20.9767 11.4235 20.9767L11.4242 20.9774Z" fill="white"/>
<path d="M11.4209 5.97095C8.2296 5.97095 5.64062 8.55992 5.64062 11.7512C5.64062 14.9425 8.2296 17.5314 11.4209 17.5314C14.6121 17.5314 17.2004 14.9425 17.2004 11.7512C17.2004 8.55992 14.6114 5.97095 11.4209 5.97095V5.97095ZM11.4209 15.4998C9.35052 15.4998 7.67156 13.8208 7.67156 11.7505C7.67156 9.68015 9.35052 8.00119 11.4209 8.00119C13.4912 8.00119 15.1702 9.68015 15.1702 11.7505C15.1702 13.8208 13.4912 15.4998 11.4209 15.4998Z" fill="white"/>
<path d="M18.777 5.74291C18.777 4.99748 18.1727 4.3938 17.4272 4.3938C16.6818 4.3938 16.0781 4.99817 16.0781 5.74291C16.0781 6.48766 16.6825 7.09203 17.4272 7.09203C18.172 7.09203 18.777 6.48835 18.777 5.74291Z" fill="white"/>
</g>
</g>
<defs>
<filter id="filter0_i_2099_1779" x="0.166016" y="0.5" width="22.5" height="23.248" filterUnits="userSpaceOnUse" color-interpolation-filters="sRGB">
<feFlood flood-opacity="0" result="BackgroundImageFix"/>
<feBlend mode="normal" in="SourceGraphic" in2="BackgroundImageFix" result="shape"/>
<feColorMatrix in="SourceAlpha" type="matrix" values="0 0 0 0 0 0 0 0 0 0 0 0 0 0 0 0 0 0 127 0" result="hardAlpha"/>
<feOffset dy="0.748046"/>
<feGaussianBlur stdDeviation="1.87012"/>
<feComposite in2="hardAlpha" operator="arithmetic" k2="-1" k3="1"/>
<feColorMatrix type="matrix" values="0 0 0 0 0 0 0 0 0 0 0 0 0 0 0 0 0 0 0.2 0"/>
<feBlend mode="normal" in2="shape" result="effect1_innerShadow_2099_1779"/>
</filter>
<filter id="filter1_i_2099_1779" x="0.167969" y="0.5" width="22.459" height="23.248" filterUnits="userSpaceOnUse" color-interpolation-filters="sRGB">
<feFlood flood-opacity="0" result="BackgroundImageFix"/>
<feBlend mode="normal" in="SourceGraphic" in2="BackgroundImageFix" result="shape"/>
<feColorMatrix in="SourceAlpha" type="matrix" values="0 0 0 0 0 0 0 0 0 0 0 0 0 0 0 0 0 0 127 0" result="hardAlpha"/>
<feOffset dy="0.748046"/>
<feGaussianBlur stdDeviation="1.87012"/>
<feComposite in2="hardAlpha" operator="arithmetic" k2="-1" k3="1"/>
<feColorMatrix type="matrix" values="0 0 0 0 0 0 0 0 0 0 0 0 0 0 0 0 0 0 0.1 0"/>
<feBlend mode="normal" in2="shape" result="effect1_innerShadow_2099_1779"/>
</filter>
<clipPath id="clip0_2099_1779">
<rect width="22.5" height="22.5" fill="white" transform="translate(0.166016 0.5)"/>
</clipPath>
</defs>
</svg>
