<svg width="14" height="14" viewBox="0 0 14 14" fill="none" xmlns="http://www.w3.org/2000/svg">
<path d="M12.8355 7.32627C13.0368 7.09179 13.1778 6.81175 13.2463 6.51045C13.3148 6.20914 13.3088 5.89567 13.2287 5.59723C13.1486 5.29879 12.997 5.02439 12.7868 4.79783C12.5767 4.57128 12.3145 4.39941 12.0229 4.29714C12.08 3.99344 12.062 3.68041 11.9707 3.38521C11.8794 3.09001 11.7174 2.82155 11.4988 2.60312C11.2803 2.38469 11.0117 2.2229 10.7164 2.13177C10.4212 2.04064 10.1081 2.02293 9.80445 2.08018C9.7021 1.78859 9.53012 1.52639 9.30344 1.31634C9.07677 1.1063 8.80225 0.954757 8.50372 0.874876C8.20519 0.794995 7.89167 0.789189 7.59039 0.857963C7.28911 0.926737 7.00917 1.06801 6.77487 1.26952C6.54039 1.06828 6.26035 0.927288 5.95905 0.858776C5.65775 0.790265 5.34427 0.796302 5.04583 0.876365C4.74739 0.956428 4.47299 1.1081 4.24643 1.31822C4.01987 1.52834 3.84801 1.79056 3.74574 2.08214C3.44206 2.02516 3.12906 2.04312 2.8339 2.13447C2.53873 2.22582 2.27032 2.38781 2.05192 2.60638C1.83353 2.82495 1.67176 3.0935 1.58065 3.38874C1.48953 3.68397 1.47183 3.99698 1.52906 4.30062C1.23754 4.40305 0.975408 4.57506 0.765414 4.80173C0.555419 5.0284 0.4039 5.30289 0.324002 5.60138C0.244105 5.89986 0.23824 6.21334 0.306919 6.5146C0.375598 6.81587 0.516748 7.09583 0.718119 7.3302C0.516817 7.56467 0.375779 7.84473 0.307248 8.14606C0.238717 8.4474 0.24476 8.76091 0.324859 9.05938C0.404957 9.35785 0.556686 9.63226 0.766879 9.85879C0.977071 10.0853 1.23938 10.2571 1.53103 10.3593C1.47391 10.663 1.49177 10.976 1.58306 11.2712C1.67435 11.5664 1.83631 11.8349 2.05488 12.0533C2.27344 12.2717 2.54202 12.4335 2.83728 12.5246C3.13255 12.6157 3.44558 12.6333 3.74922 12.576C3.85165 12.8675 4.02366 13.1297 4.25033 13.3397C4.477 13.5496 4.75149 13.7012 5.04998 13.7811C5.34846 13.861 5.66194 13.8668 5.9632 13.7981C6.26447 13.7295 6.54443 13.5883 6.7788 13.3869C7.01327 13.5882 7.29333 13.7293 7.59466 13.7978C7.896 13.8663 8.2095 13.8603 8.50797 13.7802C8.80644 13.7001 9.08086 13.5484 9.30739 13.3382C9.53393 13.128 9.70575 12.8657 9.80793 12.574C10.1116 12.6311 10.4246 12.6133 10.7198 12.522C11.0151 12.4307 11.2835 12.2687 11.502 12.0502C11.7204 11.8316 11.8822 11.5631 11.9733 11.2678C12.0645 10.9725 12.0822 10.6595 12.0249 10.3559C12.3164 10.2534 12.5786 10.0814 12.7886 9.85476C12.9986 9.62807 13.1501 9.35357 13.23 9.05506C13.3099 8.75656 13.3157 8.44307 13.2469 8.1418C13.1782 7.84053 13.037 7.56059 12.8355 7.32627Z" fill="#FF8C00"/>
<path d="M5.61115 9.81603L3.79953 8.00654C3.73078 7.93772 3.69215 7.84442 3.69212 7.74713C3.69209 7.64985 3.73068 7.55653 3.79939 7.48767L4.01937 7.26729C4.08819 7.19854 4.18149 7.1599 4.27877 7.15988C4.37605 7.15985 4.46938 7.19843 4.53824 7.26715L5.85514 8.58247L8.95476 5.28674C9.02146 5.21593 9.11352 5.17448 9.21075 5.17149C9.30798 5.1685 9.40242 5.20421 9.47335 5.27078L9.69937 5.48397C9.77027 5.55068 9.81177 5.64281 9.81476 5.7401C9.81776 5.8374 9.78199 5.9319 9.71533 6.00284L6.13878 9.80769C6.10511 9.8436 6.06456 9.87237 6.01954 9.89229C5.97452 9.91222 5.92596 9.92289 5.87674 9.92366C5.82751 9.92444 5.77864 9.91531 5.73301 9.89682C5.68739 9.87833 5.64595 9.85086 5.61115 9.81603Z" fill="white"/>
</svg>
