<svg width="20" height="20" viewBox="0 0 20 20" fill="none" xmlns="http://www.w3.org/2000/svg">
<g clip-path="url(#clip0_764_14509)">
<path d="M10.6094 3.53146C11.5 3.59396 12.2969 2.93771 12.375 2.01583C12.4375 1.12521 11.7813 0.328333 10.8594 0.250208C9.96879 0.187708 9.17192 0.843958 9.09379 1.76583C9.03129 2.67208 9.71879 3.46896 10.6094 3.53146Z" fill="black"/>
<path d="M9.21817 4.20346C9.53067 3.96908 9.9213 3.84408 10.3588 3.85971C10.9057 3.90658 11.39 4.25033 11.6557 4.65658L13.2963 7.92221L15.5307 9.48471C15.7182 9.64096 15.8432 9.87533 15.8275 10.1253C15.8119 10.5316 15.4369 10.8285 15.0307 10.7816C14.9213 10.7816 14.7963 10.7347 14.6869 10.6722L12.2807 9.03158C12.2182 8.96908 12.14 8.89096 12.0932 8.79721L11.4682 7.57846L10.7338 10.8285L13.64 14.266C13.7025 14.3753 13.7494 14.5003 13.7807 14.6097L14.5619 18.7503C14.5619 18.8441 14.5619 18.9066 14.5619 18.9847C14.515 19.6097 13.9838 20.0316 13.3744 20.016C12.8744 19.9691 12.4994 19.6097 12.3744 19.141L11.64 15.2816L9.28067 12.6566L8.7338 15.1722C8.71817 15.2816 8.5463 15.5316 8.49942 15.6253L6.24942 19.4535C6.01505 19.7972 5.65567 20.0316 5.21817 19.9847C4.59317 19.9378 4.14005 19.4066 4.18692 18.7972C4.20255 18.6097 4.28067 18.4535 4.34317 18.3128L6.45255 14.7972L8.20255 7.03158L7.06192 7.95346L6.43692 10.7191C6.37442 11.0628 6.03067 11.3597 5.65567 11.3441C5.24942 11.3285 4.95255 10.9535 4.96817 10.5472C4.96817 10.5316 4.96817 10.4847 4.9838 10.4535L5.68692 7.23471C5.7338 7.09408 5.7963 6.98471 5.9213 6.89096L9.21817 4.20346Z" fill="black"/>
</g>
<defs>
<clipPath id="clip0_764_14509">
<rect width="20" height="20" fill="white"/>
</clipPath>
</defs>
</svg>
