<svg width="35" height="36" viewBox="0 0 35 36" fill="none" xmlns="http://www.w3.org/2000/svg">
<path fill-rule="evenodd" clip-rule="evenodd" d="M13.1263 4.51025C9.30058 4.51025 6.19922 7.61162 6.19922 11.4373C6.19922 15.2631 9.30058 18.3644 13.1263 18.3644C16.9521 18.3644 20.0534 15.2631 20.0534 11.4373C20.0534 7.61162 16.9521 4.51025 13.1263 4.51025ZM4.01172 11.4373C4.01172 6.40349 8.09246 2.32275 13.1263 2.32275C18.1602 2.32275 22.2409 6.40349 22.2409 11.4373C22.2409 16.4712 18.1602 20.5519 13.1263 20.5519C8.09246 20.5519 4.01172 16.4712 4.01172 11.4373Z" fill="#FF8C00"/>
<path d="M2.41823 31.3454L1.82422 33.6772H25.1576L24.5633 31.3448C23.2735 26.2826 18.7148 22.7397 13.4908 22.7397C8.26667 22.7397 3.70782 26.2829 2.41823 31.3454Z" fill="#FF8C00"/>
<path fill-rule="evenodd" clip-rule="evenodd" d="M22.2565 3.35142C22.3656 2.75729 22.9356 2.36414 23.5298 2.47327C27.7731 3.2527 30.9884 6.96851 30.9884 11.4376C30.9884 15.9066 27.7731 19.6225 23.5298 20.4019C22.9356 20.511 22.3656 20.1179 22.2565 19.5237C22.1473 18.9296 22.5404 18.3595 23.1346 18.2505C26.3584 17.6582 28.8009 14.832 28.8009 11.4376C28.8009 8.04315 26.3584 5.21692 23.1346 4.62478C22.5404 4.51563 22.1473 3.94554 22.2565 3.35142Z" fill="#FF8C00"/>
<path fill-rule="evenodd" clip-rule="evenodd" d="M23.7445 23.9446C23.916 23.3654 24.5246 23.0349 25.1038 23.2064C28.8854 24.3261 31.9091 27.3704 32.9039 31.3496L33.1461 32.3182C33.2925 32.9042 32.9362 33.498 32.3503 33.6446C31.7642 33.791 31.1703 33.4347 31.0238 32.8488L30.7817 31.8802C29.9786 28.6679 27.5376 26.2084 24.4827 25.304C23.9036 25.1325 23.573 24.5239 23.7445 23.9446Z" fill="#FF8C00"/>
</svg>
