<svg width="23" height="24" viewBox="0 0 23 24" fill="none" xmlns="http://www.w3.org/2000/svg">
<path d="M20.5454 16.0935L17.364 15.7302C16.6 15.6426 15.8485 15.9056 15.3099 16.4442L13.0053 18.7488C9.46063 16.9452 6.55478 14.0518 4.75115 10.4947L7.06832 8.17749C7.6069 7.6389 7.86993 6.88739 7.78225 6.12334L7.41902 2.96697C7.26872 1.70192 6.20408 0.75 4.92651 0.75H2.75964C1.34429 0.75 0.166925 1.92738 0.254601 3.34273C0.918437 14.0393 9.47316 22.5816 20.1572 23.2454C21.5725 23.3331 22.7499 22.1557 22.7499 20.7403V18.5735C22.7624 17.3084 21.8105 16.2438 20.5454 16.0935Z" fill="#FF8C00"/>
</svg>
