<svg width="28" height="28" viewBox="0 0 28 28" fill="none" xmlns="http://www.w3.org/2000/svg">
<path d="M3.2091 21.7583C2.73076 21.7583 2.3341 21.3616 2.3341 20.8833V14.2333C2.27576 11.0716 3.4541 8.08494 5.64743 5.84494C7.84076 3.6166 10.7808 2.3916 13.9424 2.3916C20.4058 2.3916 25.6674 7.65327 25.6674 14.1166V20.7666C25.6674 21.2449 25.2708 21.6416 24.7924 21.6416C24.3141 21.6416 23.9174 21.2449 23.9174 20.7666V14.1166C23.9174 8.6216 19.4491 4.1416 13.9424 4.1416C11.2474 4.1416 8.75076 5.17993 6.89576 7.06993C5.0291 8.9716 4.03743 11.5033 4.0841 14.2099V20.8716C4.0841 21.3616 3.6991 21.7583 3.2091 21.7583Z" fill="#005DFF"/>
<path d="M6.9287 14.5249H6.77703C4.32703 14.5249 2.33203 16.5199 2.33203 18.9699V21.1632C2.33203 23.6132 4.32703 25.6082 6.77703 25.6082H6.9287C9.3787 25.6082 11.3737 23.6132 11.3737 21.1632V18.9699C11.3737 16.5199 9.3787 14.5249 6.9287 14.5249Z" fill="#005DFF"/>
<path d="M21.2217 14.5249H21.07C18.62 14.5249 16.625 16.5199 16.625 18.9699V21.1632C16.625 23.6132 18.62 25.6082 21.07 25.6082H21.2217C23.6717 25.6082 25.6667 23.6132 25.6667 21.1632V18.9699C25.6667 16.5199 23.6717 14.5249 21.2217 14.5249Z" fill="#005DFF"/>
</svg>
