<svg width="35" height="36" viewBox="0 0 35 36" fill="none" xmlns="http://www.w3.org/2000/svg">
<path fill-rule="evenodd" clip-rule="evenodd" d="M1.82031 18.0013C1.82031 26.6596 8.83918 33.6784 17.4974 33.6784C26.1557 33.6784 33.1745 26.6596 33.1745 18.0013C33.1745 9.34309 26.1557 2.32422 17.4974 2.32422C8.83918 2.32422 1.82031 9.34309 1.82031 18.0013ZM13.7629 10.9859C14.8079 10.0569 16.1706 9.61588 17.4972 9.61588C19.1898 9.61588 20.5649 10.1494 21.5266 11.051C22.4827 11.9474 22.966 13.1505 22.966 14.3555C22.966 15.2066 22.7962 15.9089 22.4833 16.5263C22.1789 17.1272 21.7659 17.5914 21.3783 17.9877C21.2472 18.1218 21.1174 18.2504 20.9889 18.3776C20.3425 19.0181 19.7329 19.6218 19.2048 20.6779C18.9347 21.2182 18.2778 21.4373 17.7374 21.1671C17.1971 20.897 16.9781 20.24 17.2483 19.6997C17.9502 18.2957 18.8312 17.4292 19.4898 16.7814C19.6056 16.6675 19.7145 16.5603 19.8144 16.4582C20.1558 16.1091 20.3808 15.836 20.5322 15.5374C20.675 15.2558 20.7785 14.8973 20.7785 14.3555C20.7785 13.7375 20.5328 13.1177 20.0305 12.6469C19.5338 12.1813 18.7215 11.8034 17.4972 11.8034C16.6367 11.8034 15.8117 12.0915 15.2163 12.6209C14.6408 13.1323 14.2161 13.9231 14.2161 15.0846C14.2161 15.6887 13.7265 16.1784 13.1224 16.1784C12.5183 16.1784 12.0286 15.6887 12.0286 15.0846C12.0286 13.3295 12.6977 11.9328 13.7629 10.9859ZM16.0391 25.293C16.0391 26.0984 16.692 26.7513 17.4974 26.7513C18.3028 26.7513 18.9557 26.0984 18.9557 25.293C18.9557 24.4875 18.3028 23.8332 17.4974 23.8332C16.692 23.8332 16.0391 24.4875 16.0391 25.293Z" fill="#005DFF"/>
</svg>
