<svg width="35" height="36" viewBox="0 0 35 36" fill="none" xmlns="http://www.w3.org/2000/svg">
<path fill-rule="evenodd" clip-rule="evenodd" d="M11.668 3.78125C6.23142 3.78125 1.82422 8.18845 1.82422 13.625V22.375C1.82422 27.8115 6.23142 32.2188 11.668 32.2188C17.1045 32.2188 21.5117 27.8115 21.5117 22.375V19.0938H32.0846C32.6887 19.0938 33.1784 18.604 33.1784 18C33.1784 17.396 32.6887 16.9062 32.0846 16.9062H21.5117V13.625C21.5117 8.18845 17.1045 3.78125 11.668 3.78125ZM21.5117 16.9062H14.5846C13.9806 16.9062 13.4909 17.396 13.4909 18C13.4909 18.604 13.9806 19.0938 14.5846 19.0938H21.5117V16.9062Z" fill="#005DFF"/>
<path fill-rule="evenodd" clip-rule="evenodd" d="M27.5391 12.8516C27.9663 12.4245 28.6587 12.4245 29.0858 12.8516L32.4296 16.1955C33.4263 17.1921 33.4264 18.8079 32.4296 19.8045L29.0858 23.1484C28.6587 23.5755 27.9663 23.5755 27.5391 23.1484C27.112 22.7212 27.112 22.0288 27.5391 21.6016L30.8829 18.2578C31.0253 18.1153 31.0253 17.8846 30.8829 17.7422L27.5391 14.3984C27.112 13.9713 27.112 13.2787 27.5391 12.8516Z" fill="#005DFF"/>
</svg>
