<svg width="31" height="26" viewBox="0 0 31 26" fill="none" xmlns="http://www.w3.org/2000/svg">
<path d="M22.793 0.775879H8.20964C3.83464 0.775879 0.917969 2.96338 0.917969 8.06755V18.2759C0.917969 23.38 3.83464 25.5675 8.20964 25.5675H22.793C27.168 25.5675 30.0846 23.38 30.0846 18.2759V8.06755C30.0846 2.96338 27.168 0.775879 22.793 0.775879ZM23.4784 9.65713L18.9138 13.303C17.9513 14.0759 16.7263 14.455 15.5013 14.455C14.2763 14.455 13.0367 14.0759 12.0888 13.303L7.52422 9.65713C7.05755 9.27796 6.98464 8.57796 7.34922 8.1113C7.72839 7.64463 8.4138 7.55713 8.88047 7.9363L13.4451 11.5821C14.5534 12.4717 16.4346 12.4717 17.543 11.5821L22.1076 7.9363C22.5742 7.55713 23.2742 7.63005 23.6388 8.1113C24.018 8.57796 23.9451 9.27796 23.4784 9.65713Z" fill="#FF8C00"/>
</svg>
