<svg width="35" height="36" viewBox="0 0 35 36" fill="none" xmlns="http://www.w3.org/2000/svg">
<path fill-rule="evenodd" clip-rule="evenodd" d="M20.418 4.61695C19.676 1.55818 15.3246 1.55818 14.5827 4.61695C14.1019 6.59401 11.8444 7.53115 10.1025 6.47208C7.41299 4.8347 4.3368 7.91262 5.97419 10.6004C6.22032 11.0041 6.36766 11.4602 6.4042 11.9316C6.44075 12.403 6.36549 12.8763 6.18452 13.3131C6.00354 13.7499 5.722 14.1378 5.36278 14.4452C5.00356 14.7527 4.57684 14.9709 4.11732 15.0823C1.05855 15.8243 1.05855 20.1756 4.11732 20.9176C4.57643 21.0294 5.0027 21.2477 5.36151 21.5551C5.72032 21.8625 6.00153 22.2503 6.18229 22.6868C6.36305 23.1232 6.43826 23.5963 6.4018 24.0674C6.36532 24.5384 6.21822 24.9943 5.97245 25.3978C4.33506 28.0873 7.41299 31.1635 10.1007 29.526C10.5044 29.28 10.9605 29.1326 11.4319 29.0961C11.9033 29.0595 12.3767 29.1348 12.8135 29.3158C13.2503 29.4967 13.6382 29.7783 13.9456 30.1375C14.253 30.4967 14.4713 30.9234 14.5827 31.3829C15.3246 34.4418 19.676 34.4418 20.418 31.3829C20.5297 30.9239 20.748 30.4976 21.0555 30.1388C21.3629 29.7799 21.7506 29.4988 22.1871 29.3179C22.6236 29.1373 23.0967 29.062 23.5677 29.0985C24.0388 29.1349 24.4946 29.2821 24.8982 29.5278C27.5876 31.1652 30.6638 28.0873 29.0264 25.3995C28.7804 24.9959 28.633 24.5397 28.5965 24.0684C28.5599 23.5969 28.6351 23.1237 28.8161 22.6868C28.9971 22.25 29.2787 21.8621 29.6379 21.5546C29.9971 21.2472 30.4238 21.0289 30.8833 20.9176C33.9422 20.1756 33.9422 15.8243 30.8833 15.0823C30.4242 14.9706 29.9979 14.7522 29.6392 14.4448C29.2803 14.1374 28.9991 13.7497 28.8183 13.3132C28.6376 12.8766 28.5624 12.4036 28.5988 11.9325C28.6353 11.4615 28.7824 11.0056 29.0282 10.6021C30.6656 7.91262 27.5876 4.83643 24.8999 6.47382C24.4962 6.71996 24.0401 6.86729 23.5687 6.90384C23.0973 6.94038 22.624 6.86512 22.1871 6.68415C21.7503 6.50318 21.3624 6.22163 21.055 5.86241C20.7476 5.5032 20.5293 5.07647 20.418 4.61695ZM17.5003 24.1979C14.0773 24.1979 11.3024 21.423 11.3024 18C11.3024 14.5769 14.0773 11.802 17.5003 11.802C20.9233 11.802 23.6982 14.5769 23.6982 18C23.6982 21.423 20.9233 24.1979 17.5003 24.1979Z" fill="#005DFF"/>
</svg>
