<svg width="153" height="153" viewBox="0 0 153 153" fill="none" xmlns="http://www.w3.org/2000/svg">
<circle cx="76.5" cy="76.5" r="66.5" fill="white" fill-opacity="0.2"/>
<circle cx="76.5" cy="76.5" r="76.5" fill="white" fill-opacity="0.2"/>
<circle cx="76.5" cy="76.5" r="56.5" fill="white"/>
<path d="M66.5375 95.5258L51.3199 80.3177C50.7424 79.7392 50.418 78.9552 50.418 78.1378C50.418 77.3204 50.7424 76.5364 51.3199 75.9579L53.1687 74.1067C53.7472 73.5292 54.5312 73.2048 55.3486 73.2048C56.166 73.2048 56.95 73.5292 57.5285 74.1067L68.5904 85.1616L94.6421 57.477C95.2027 56.8822 95.9764 56.5342 96.7933 56.5092C97.6103 56.4843 98.4037 56.7846 98.9995 57.3441L100.898 59.136C101.494 59.6966 101.842 60.4708 101.867 61.2883C101.892 62.1058 101.591 62.8998 101.031 63.4957L70.9708 95.4569C70.6878 95.7586 70.347 96.0002 69.9687 96.1675C69.5904 96.3348 69.1823 96.4244 68.7688 96.4308C68.3552 96.4372 67.9445 96.3604 67.5612 96.2049C67.1779 96.0494 66.8298 95.8185 66.5375 95.5258Z" fill="#FF8C00"/>
</svg>
