<svg width="26" height="26" viewBox="0 0 26 26" fill="none" xmlns="http://www.w3.org/2000/svg">
<path d="M9.15581 5.62726C10.3351 3.26862 10.9248 2.0893 11.7227 1.71087C12.4171 1.38153 13.2227 1.38153 13.9171 1.71087C14.7149 2.0893 15.3046 3.26862 16.484 5.62726L16.536 5.73131C16.8105 6.28026 16.9477 6.55475 17.1385 6.77346C17.3837 7.05447 17.6942 7.27095 18.0425 7.40383C18.3137 7.50725 18.6187 7.54114 19.2287 7.60892C21.6218 7.87481 22.8183 8.00776 23.4079 8.49609C24.1641 9.12249 24.4955 10.1263 24.2608 11.0799C24.0778 11.8232 23.1957 12.6424 21.4313 14.2808L21.2497 14.4493C20.7586 14.9053 20.513 15.1333 20.3506 15.3972C20.1026 15.8001 19.9863 16.2704 20.0178 16.7425C20.0385 17.0515 20.1495 17.3678 20.3713 18.0002C21.1827 20.3125 21.5884 21.4687 21.4328 22.1788C21.1935 23.2703 20.2739 24.0805 19.161 24.1806C18.4369 24.2457 17.341 23.6977 15.1492 22.6018L14.4402 22.2472C13.8511 21.9528 13.5566 21.8055 13.2479 21.7463C12.9651 21.6922 12.6747 21.6922 12.3919 21.7463C12.0831 21.8055 11.7887 21.9528 11.1996 22.2472L10.4906 22.6018C8.29876 23.6977 7.20283 24.2457 6.47882 24.1806C5.36585 24.0805 4.44631 23.2703 4.20702 22.1788C4.05136 21.4687 4.45704 20.3125 5.26839 18.0002C5.49029 17.3678 5.60122 17.0515 5.62194 16.7425C5.65357 16.2704 5.53726 15.8001 5.28917 15.3972C5.12677 15.1333 4.88121 14.9053 4.3901 14.4493L4.20852 14.2808C2.44414 12.6424 1.56194 11.8232 1.37898 11.0799C1.14428 10.1263 1.47565 9.12249 2.23193 8.49609C2.82151 8.00776 4.01802 7.87481 6.41104 7.60892C7.02105 7.54114 7.32604 7.50725 7.59722 7.40383C7.94567 7.27095 8.25612 7.05447 8.50127 6.77346C8.69207 6.55475 8.8293 6.28027 9.10378 5.73131L9.15581 5.62726Z" fill="#FF8C00" stroke="#FF8C00" stroke-width="1.7069" stroke-linecap="round" stroke-linejoin="round"/>
</svg>
