<svg width="28" height="28" viewBox="0 0 28 28" fill="none" xmlns="http://www.w3.org/2000/svg">
<g clip-path="url(#clip0_767_28615)">
<path d="M12.6053 25.6657H15.392C18.992 25.6657 20.792 25.6657 22.1665 24.9639C23.3702 24.3493 24.349 23.3705 24.9636 22.1667C25.6654 20.7923 25.6654 18.9922 25.6654 15.3924C25.6654 13.5478 25.6654 12.6254 25.4436 11.7654C25.2478 11.0065 24.926 10.2859 24.4916 9.63355C23.9992 8.89431 23.3125 8.27867 21.939 7.04739L21.7863 6.91046C18.846 4.27447 17.3757 2.95648 15.6872 2.53678C14.5784 2.26118 13.419 2.26118 12.3102 2.53678C10.6216 2.95648 9.15144 4.27447 6.21105 6.91046L6.05831 7.04738C4.68485 8.27867 3.9981 8.89431 3.50579 9.63355C3.07137 10.2859 2.74958 11.0065 2.55385 11.7654C2.33203 12.6254 2.33203 13.5478 2.33203 15.3924C2.33203 18.9922 2.33203 20.7923 3.03379 22.1667C3.64833 23.3705 4.62724 24.3493 5.83092 24.9639C7.20542 25.6657 9.0054 25.6657 12.6053 25.6657Z" stroke="#818181" stroke-width="1.5" stroke-linecap="round"/>
<path d="M9.33203 25.0827V19.8327C9.33203 17.2554 11.4214 15.166 13.9987 15.166C16.576 15.166 18.6654 17.2554 18.6654 19.8327V25.0827" stroke="#818181" stroke-width="1.5" stroke-linecap="round"/>
</g>
<defs>
<clipPath id="clip0_767_28615">
<rect width="27.6374" height="27.6355" fill="white" transform="translate(0 -0.000976562)"/>
</clipPath>
</defs>
</svg>
