<svg width="28" height="28" viewBox="0 0 28 28" fill="none" xmlns="http://www.w3.org/2000/svg">
<path d="M17.5594 26.181C16.8659 26.1893 16.0955 26.1893 15.2334 26.1893H12.4001C11.5381 26.1893 10.7677 26.1893 10.0742 26.181V19.5685C10.0742 17.5017 11.7499 15.8262 13.8168 15.8262C15.8837 15.8262 17.5594 17.5017 17.5594 19.5685V26.181Z" fill="#FF8C00"/>
<path d="M19.2867 26.1365V19.574C19.2867 16.5533 16.8378 14.1045 13.8168 14.1045C10.7958 14.1045 8.34686 16.5533 8.34686 19.574V26.1365C6.77461 26.052 5.69676 25.8447 4.79809 25.3363C3.75258 24.7447 2.88771 23.8799 2.29611 22.8344C1.4375 21.3171 1.4375 19.289 1.4375 15.2329C1.4375 13.2322 1.4375 12.2319 1.70113 11.3052C1.88489 10.6592 2.16189 10.0434 2.52337 9.47733C3.04192 8.66526 3.79044 8.0016 5.28746 6.67429L5.60382 6.3938C9.04089 3.34639 10.7594 1.82268 12.7766 1.51552C13.466 1.41052 14.1675 1.41052 14.857 1.51552C16.874 1.82268 18.5926 3.34639 22.0297 6.39381L22.346 6.67429C23.8431 8.0016 24.5916 8.66526 25.1101 9.47733C25.4716 10.0434 25.7487 10.6592 25.9324 11.3052C26.196 12.2319 26.196 13.2322 26.196 15.2329C26.196 19.289 26.196 21.3171 25.3374 22.8344C24.7459 23.8799 23.8809 24.7447 22.8354 25.3363C21.9368 25.8447 20.8589 26.052 19.2867 26.1365Z" fill="#FF8C00"/>
</svg>
