<svg width="12" height="12" viewBox="0 0 12 12" fill="none" xmlns="http://www.w3.org/2000/svg">
<path d="M5.70784 1.08856C5.7998 0.805543 6.2002 0.805543 6.29215 1.08856L7.22515 3.96002C7.34853 4.33973 7.70237 4.59681 8.10161 4.59681H11.1209C11.4184 4.59681 11.5422 4.97761 11.3014 5.15253L8.8588 6.92719C8.5358 7.16186 8.40065 7.57783 8.52402 7.95753L9.45702 10.829C9.54897 11.112 9.22505 11.3474 8.9843 11.1724L6.54168 9.39779C6.21869 9.16311 5.78131 9.16311 5.45831 9.39779L3.0157 11.1724C2.77495 11.3474 2.45103 11.112 2.54298 10.829L3.47598 7.95753C3.59935 7.57783 3.4642 7.16186 3.1412 6.92719L0.698586 5.15253C0.457837 4.97761 0.581566 4.59681 0.879148 4.59681H3.89839C4.29763 4.59681 4.65147 4.33973 4.77485 3.96002L5.70784 1.08856Z" fill="#FFEC8A" stroke="#FFB444" stroke-width="0.61438"/>
</svg>
