<svg width="4" height="4" viewBox="0 0 4 4" fill="none" xmlns="http://www.w3.org/2000/svg">
<path d="M1.4488 1.7228C1.68588 1.7228 1.87807 1.53061 1.87807 1.29353C1.87807 1.05645 1.68588 0.864258 1.4488 0.864258C1.21172 0.864258 1.01953 1.05645 1.01953 1.29353C1.01953 1.53061 1.21172 1.7228 1.4488 1.7228Z" stroke="#005DFF" stroke-width="0.183972"/>
<path d="M2.85858 2.45898H3.22652C3.36144 2.45898 3.47182 2.56937 3.47182 2.70428V3.07223C3.47182 3.20714 3.36144 3.31752 3.22652 3.31752H2.85858C2.72366 3.31752 2.61328 3.20714 2.61328 3.07223V2.70428C2.61328 2.56937 2.72366 2.45898 2.85858 2.45898Z" stroke="#005DFF" stroke-width="0.183972"/>
<path d="M2.24946 1.23242H2.57816C2.80506 1.23242 2.91053 1.51329 2.74005 1.66292L1.76009 2.52023C1.58961 2.66863 1.69509 2.9495 1.92076 2.9495H2.24946" stroke="#005DFF" stroke-width="0.183972" stroke-linecap="round" stroke-linejoin="round"/>
<path d="M1.44911 1.29375H1.45053" stroke="#005DFF" stroke-width="0.245296" stroke-linecap="round" stroke-linejoin="round"/>
<path d="M3.04677 2.88847H3.04819" stroke="#005DFF" stroke-width="0.245296" stroke-linecap="round" stroke-linejoin="round"/>
</svg>
