<svg width="28" height="28" viewBox="0 0 28 28" fill="none" xmlns="http://www.w3.org/2000/svg">
<path fill-rule="evenodd" clip-rule="evenodd" d="M1.45703 16.7992V12.833C1.45703 9.29962 1.45703 7.53292 2.03427 6.13933C2.80394 4.2812 4.28022 2.80491 6.13835 2.03525C7.53195 1.45801 9.29864 1.45801 12.832 1.45801H15.1654C18.6987 1.45801 20.4654 1.45801 21.859 2.03525C23.7171 2.80491 25.1934 4.2812 25.9631 6.13933C26.5404 7.53292 26.5404 9.29962 26.5404 12.833V16.7992C26.5404 17.7567 26.5404 18.2355 26.4843 18.6369C26.1238 21.218 24.095 23.2467 21.514 23.6073C21.1124 23.6633 20.6338 23.6633 19.6763 23.6633C19.4857 23.6633 19.3903 23.6633 19.2979 23.6692C18.7202 23.7059 18.1664 23.9138 17.7071 24.2662C17.6337 24.3226 17.5619 24.3852 17.4183 24.5106L16.877 24.9836C15.9716 25.7745 15.519 26.1699 15.0235 26.3558C14.3628 26.6038 13.6346 26.6038 12.9739 26.3558C12.4784 26.1699 12.0257 25.7745 11.1204 24.9836L10.5791 24.5106C10.4356 24.3853 10.3637 24.3226 10.2903 24.2662C9.83104 23.9138 9.27725 23.7059 8.69946 23.6692C8.6071 23.6633 8.51178 23.6633 8.32114 23.6633C7.36367 23.6633 6.88492 23.6633 6.48339 23.6073C3.9024 23.2467 1.87364 21.218 1.51312 18.6369C1.45703 18.2355 1.45703 17.7567 1.45703 16.7992ZM9.6237 11.083C9.6237 10.5998 10.0155 10.208 10.4987 10.208H17.4987C17.9819 10.208 18.3737 10.5998 18.3737 11.083C18.3737 11.5663 17.9819 11.958 17.4987 11.958H10.4987C10.0155 11.958 9.6237 11.5663 9.6237 11.083ZM10.4987 14.8747C10.0155 14.8747 9.6237 15.2664 9.6237 15.7497C9.6237 16.2329 10.0155 16.6247 10.4987 16.6247H17.4987C17.9819 16.6247 18.3737 16.2329 18.3737 15.7497C18.3737 15.2664 17.9819 14.8747 17.4987 14.8747H10.4987Z" fill="white"/>
</svg>
