<svg width="20" height="20" viewBox="0 0 20 20" fill="none" xmlns="http://www.w3.org/2000/svg">
<path d="M9.16797 13.852V12.9798C9.16797 12.715 8.9533 12.5003 8.68847 12.5003H8.43038C6.26301 12.5003 4.21312 13.4856 2.85915 15.178L2.50438 15.6215C2.22704 15.9682 1.66797 15.7721 1.66797 15.3281V14.7119C1.66797 10.7291 4.89669 7.50034 8.87947 7.50034C9.0388 7.50034 9.16797 7.3712 9.16797 7.21188V6.1487C9.16797 4.32261 11.2668 3.29401 12.7101 4.4128L15.9564 6.92936C17.2381 7.92297 17.8791 8.41974 18.134 9.01249C18.4053 9.64307 18.4053 10.3576 18.134 10.9882C17.8791 11.5809 17.2381 12.0777 15.9564 13.0713L12.7101 15.5879C11.2668 16.7067 9.16797 15.6781 9.16797 13.852Z" stroke="#121212" stroke-width="1.5" stroke-linecap="round" stroke-linejoin="round"/>
</svg>
